<?xml version="1.0" encoding="UTF-8"?>
<svg viewBox="0 0 400 400" xmlns="http://www.w3.org/2000/svg">
 <defs>
  <filter id="a">
   <feGaussianBlur stdDeviation="0.414313"/>
  </filter>
  <filter id="g" x="-.086395" y="-.11145" width="1.1728" height="1.2229">
   <feGaussianBlur stdDeviation="11.145"/>
  </filter>
  <linearGradient id="j" x1=".12494" x2=".83786" y1="-.076911" y2=".65524">
   <stop stop-color="#ffefef" stop-opacity=".582" offset="0"/>
   <stop stop-color="#ffefef" stop-opacity=".143" offset="1"/>
  </linearGradient>
  <linearGradient id="h" x1=".39126" x2="1.1738" y1=".37332" y2=".67921">
   <stop stop-color="#fff" stop-opacity=".112" offset="0"/>
   <stop stop-color="#fff" stop-opacity=".898" offset="1"/>
  </linearGradient>
  <linearGradient id="i" x1=".56222" x2=".46034" y1=".90389" y2="-.093459">
   <stop stop-color="#fffbfb" stop-opacity=".827" offset="0"/>
   <stop stop-opacity="0" offset="1"/>
  </linearGradient>
  <radialGradient id="k" cx="170.31" cy="209.17" r="104.54" gradientTransform="matrix(1.0744 -.88115 .89487 1.0911 -193.9 134.77)" gradientUnits="userSpaceOnUse">
   <stop stop-color="#70ffea" offset="0"/>
   <stop stop-color="#0055f6" offset="1"/>
  </radialGradient>
 </defs>
 <g fill-rule="evenodd">
  <g stroke="#000">
   <path d="m245.99 367.98l-212.06-40.186-84.826-217.3 318.1-80.372 96.245 209.86-117.45 128z" fill="#1a1a1a" filter="url(#g)"/>
   <g fill="none" stroke-width="1.023">
    <path d="m107.84 297.12l14.856 7.4344 28.996-17.495-14.552-7.0016-29.3 17.062z"/>
    <path d="m194.96 245.79l14.378 6.4416 26.015-15.489-14.404-6.2175-25.989 15.265z"/>
    <path d="m221.06 230.47l14.201 6.1311 25.088-15.195-14.046-5.8469-25.243 14.911z"/>
    <path d="m246.06 215.56l14.404 5.995 21.445-12.943-14.105-5.6896-21.744 12.638z"/>
    <path d="m267.81 202.9l14.173 5.7147 19.419-11.923-13.682-5.3598-19.91 11.568z"/>
    <path d="m287.8 191.35l13.392 5.2482 19.487-11.308-12.841-5.7479-20.038 11.808z"/>
   </g>
  </g>
  <g stroke-linecap="round" stroke-linejoin="round">
   <path d="m48.188 305.27l276.2 147.22 267.35-237.38-239.31-81.59-304.25 171.75z" stroke="#333" stroke-width=".818"/>
   <path d="m398.62 149.38c-168.02 89.971-63.758 69.385-294.52 184.88l146.88 79.106c140.22-39.08 296.11-113.62 277.13-220.12l-99.591-33.755-29.902-10.103z" fill="url(#j)" stroke-width="2"/>
   <g stroke="#333" stroke-width=".818">
    <path d="m47.961 305.23l0.2205 20.182 274.92 151.77c5.4436-2.6769 7.7896-18.456 1.7637-24.708l-276.91-147.25z"/>
    <path d="m591.71 215.22c1.6456 4.6321 3.3972 14.716-1.3997 18.856l-266.77 242.7c7.0616-7.3731 4.8868-15.95 1.3228-24.708l266.84-236.85z"/>
    <g fill="#1a1a1a">
     <path d="m-7.5967-2.4095s47.621 309.56 51.148 306.26c3.5275-3.2945 307.77-172.6 307.77-172.6l0.8819-237.97-359.8 104.31z"/>
     <path d="m341.6-108.9c8.3998-2.1511 8.2026 0.77333 10.559 2.19l-359.76 103.49c-3.2351-2.6324-4.5889-1.5573-11.842-1.3541l361.04-104.33z"/>
    </g>
   </g>
  </g>
  <g stroke-width="1.023">
   <path d="m2.7012 16.55l344.62-103.31-2.4716 203.36-299.03 164.76-43.119-264.81z" fill="url(#k)" stroke="#000" stroke-linejoin="round"/>
   <g fill="none">
    <path d="m386.24 145.4l-298.3 180.16-15.054-7.6892 300.36-177.16 12.991 4.6971z" stroke="#999"/>
    <path d="m124.46 303.36l32.694-19.512-32.694 19.512z" opacity=".3" stroke="#000"/>
   </g>
  </g>
 </g>
 <g stroke-linejoin="round">
  <g stroke="#000">
   <path d="m369.93 310.71l64.906-49.528c3.7197-2.8383 11.559-3.1884 17.643-0.79602l32.659 13.285c6.4854 2.5502 8.9643 7.0991 5.4886 10.212l-60.016 52.962c-4.1519 3.7189-13.129 4.2615-20.041 1.1998l-37.04-16.098c-6.4415-2.8531-8.0105-7.8708-3.5998-11.236" fill="#999" opacity=".89" stroke-linecap="round" stroke-width=".974"/>
   <g fill-rule="evenodd" stroke-width=".205">
    <path d="m195.47 245.75c4.2463-2.9691 14.964 2.7222 14.345 6.3031l-14.345-6.3031z" fill="#666" opacity=".997" stroke-linecap="round"/>
    <path d="m122.23 304.78l29.322-17.806c-2.4549-4.5912-7.0381-7.8825-14.398-7.2803l-29.153 17.472c5.0834-3.1684 14.959 3.8586 14.229 7.6136z" fill="#808080"/>
    <path d="m107.97 297.18c5.8017-3.4219 15.735 5.0621 14.211 7.7317l-14.211-7.7317z" fill="none" opacity=".69" stroke-linecap="round"/>
    <g fill="#4d4d4d">
     <path d="m209.74 252.07l24.766-14.934c-1.2467-4.3032-4.9719-7.0899-13.747-6.3935l-25.355 15.032c4.4782-3.2374 15.563 3.2534 14.336 6.2959z"/>
     <path d="m234.35 237.16l25.034-14.886c-1.7281-4.4497-5.9079-7.3339-14.282-6.0274l-25.301 14.983c5.0744-2.0196 13.732 0.53206 14.55 5.9299z"/>
     <path d="m259.27 222.25l22.199-13.47c-2.9049-4.108-6.5231-5.8209-13.801-5.6126l-22.68 13.104c5.3419-1.1412 12.93 0.53203 14.282 5.9786z"/>
     <path d="m281.55 208.75l19.39-11.786c-3.3329-3.8152-7.165-5.4305-13.48-5.4174l-19.872 11.64c5.5826-0.45792 10.71 0.99565 13.961 5.5638z"/>
     <path d="m300.89 197.01l19.631-11.811c-2.477-5.2793-7.3789-6.2114-12.945-5.759l-20.514 12.323c4.9674-0.50668 9.4263 0.23923 13.827 5.2466z"/>
    </g>
   </g>
  </g>
  <path d="m304.88 317.61l83.839-61.536c1.0085-0.73192 3.0896-0.74707 4.6711-0.034729l12.805 5.7452c1.6054 0.72308 2.1011 1.9083 1.1064 2.6582l-82.56 63.307c-1.2376 0.93292-3.6153 0.98019-5.3248 0.10492l-13.766-7.0498c-1.6811-0.86081-2.0214-2.2859-0.7695-3.1945" fill="#808080" stroke-linecap="round" stroke-width=".7"/>
 </g>
 <g fill="#f0f" fill-rule="evenodd" stroke="#000" stroke-width="1.023">
  <path d="m300.44 320.08l19.015 9.8566-14 10.762-19.334-9.945 14.318-10.673z"/>
  <path d="m284.34 331.96l19.515 9.8885-14.551 11.164-19.015-10.712 14.051-10.341z"/>
  <path d="m268.79 343.37l19.021 10.69-14.976 11.372-19.981-10.408 15.936-11.654z"/>
  <path d="m251.36 356.21l20.055 10.425-18.379 14.142-20.382-10.639 18.706-13.928z"/>
  <path d="m391.9 253.09l17.589 7.9441 13.338-10.083-17.677-7.5106-13.251 9.6494z"/>
  <path d="m406.79 242.3l12.639-9.3029 18.081 7.0616-13.143 9.7268-17.578-7.4855z"/>
  <path d="m421.15 231.81l17.926 7.0649 12.543-9.5299-17.309-7.3059-13.16 9.771z"/>
  <path d="m419.09 231.09l-15.055-6.8084 13.552-9.6158 14.932 6.6093-13.43 9.8149z"/>
  <path d="m230.8 369.13l-18.301-9.4009 37.218-25.996 17.25 8.6563-36.167 26.741z"/>
  <path d="m419.34 213.41l14.689 6.5709 35.178-25.931-15.219-5.4388-34.648 24.799z"/>
  <path d="m432.73 201.69l19.313-13.845-36.125-12.793-24.101 16.248 16.447 6.0106 4.5571-3.1795 19.909 7.5594z"/>
  <path d="m413.55 174.19l-32.99 22.347-15.599-6.0746 33.723-21.506 14.866 5.2336z"/>
  <path d="m210.61 358.77l31.98-22.375-20.313-9.7589-32.033 21.749 20.366 10.385z"/>
  <path d="m188.18 347.47l25.327-17.258-18.396-9.0397-25.451 16.642 18.519 9.6554z"/>
  <path d="m167.74 336.93l18.597-12.212-17.582-8.8508-18.39 12.052 17.375 9.0103z"/>
  <path d="m170.59 314.81l15.123-9.7999 17.482 8.3774-15.289 10.202-17.316-8.7797z"/>
  <path d="m268.69 341.13l13.798-10.058-17.857-8.3058-13.329 9.7433 17.388 8.6201z"/>
  <path d="m244.22 335.19l14.091-10.082-19.919-9.6844-14.205 9.7383 20.034 10.028z"/>
  <path d="m215.45 329.06l14.142-9.7854-18.505-8.9336-14.127 9.5961 18.49 9.123z"/>
  <path d="m187.51 303.93l14.734-9.3021 17.065 8.223-14.405 9.432-17.394-8.353z"/>
  <path d="m231.35 318.11l14.197-9.9866-17.899-8.4394-14.899 9.596 18.6 8.83z"/>
  <path d="m204.07 293.51l14.383-9.2665 16.987 8.0096-14.249 9.4321-17.121-8.1752z"/>
  <path d="m259.75 324.05l14.422-10.283-19.809-9.282-14.205 9.7382 19.593 9.8271z"/>
  <path d="m284.39 329.92l14.322-10.686-17.58-8.0942-14.736 10.261 17.994 8.5196z"/>
  <path d="m300.43 318.1l14.928-10.938-17.359-7.893-15.122 10.613 17.553 8.2179z"/>
  <path d="m317.13 305.98l12.763-9.1218-17.483-7.7335-12.723 8.9391 17.443 7.9161z"/>
  <path d="m331.53 295.58l14.244-10.331-17.249-7.6035-14.347 10.202 17.352 7.7322z"/>
  <path d="m347.12 284.05l14.046-10.183-16.918-7.3901-14.075 9.9591 16.947 7.6144z"/>
  <path d="m362.72 272.76l12.973-9.4083-16.878-7.0985-12.842 9.1251 16.747 7.3817z"/>
  <path d="m377.27 262.19l11.463-8.8738-16.15-6.87-12.153 8.6739 16.841 7.0699z"/>
  <path d="m390.22 252.13l13.006-9.427-15.985-6.5683-12.925 9.1266 15.904 6.8687z"/>
  <path d="m404.83 241.52l12.565-9.1756-15.158-6.7694-13.09 9.2272 15.683 6.7178z"/>
  <path d="m220.36 283.05l15.63-9.9776 16.286 7.7251-14.95 10.357-16.965-8.1041z"/>
  <path d="m237.73 271.91l14.383-9.2665 15.818 7.8674-14.015 9.0054-16.186-7.6062z"/>
  <path d="m253.75 261.56l15.045-9.6221 15.82 7.779-15.067 9.7166-15.798-7.8734z"/>
  <path d="m270.49 250.84l13.098-8.3074 16.401 6.8788-13.635 9.2482-15.865-7.8196z"/>
  <path d="m285.22 241.31l14.305-9.0532 16.208 6.7295-14.015 9.361-16.498-7.0373z"/>
  <path d="m301.2 231.2l14.145-9.0054 16.208 6.4094-14.117 9.2833-16.236-6.6874z"/>
  <path d="m317.2 220.91l14.383-9.2665 15.974 6.445-14.249 9.4321-16.108-6.6106z"/>
  <path d="m333.45 210.47l12.902-8.3775 16.013 6.3028-12.962 8.5431-15.952-6.4683z"/>
  <path d="m348.12 200.98l15.065-9.4087 15.779 6.125-14.58 9.681-16.264-6.3972z"/>
  <path d="m255.91 303.41l14.418-9.8473 19.706 9.1769-14.329 9.9563-19.795-9.2859z"/>
  <path d="m271.96 292.34l13.719-9.2 19.592 8.9008-13.677 9.5851-19.635-9.2859z"/>
  <path d="m287.36 281.99l13.892-9.4899 19.312 8.6539-13.73 9.7802-19.474-8.9442z"/>
  <path d="m302.87 271.39l19.257 8.6141 12.587-8.8547-19.14-8.4468s-12.651 8.7361-12.704 8.6874z"/>
  <path d="m317.09 261.45l19.257 8.6142 12.587-8.8547-19.14-8.4468s-12.651 8.7361-12.704 8.6873z"/>
  <path d="m331.46 251.6l19.096 8.4677 13.547-9.7939-18.495-7.9469-14.148 9.273z"/>
  <path d="m347.35 241.09l18.425 8.062 13.229-9.3916-18.856-7.4432-12.798 8.7728z"/>
  <path d="m362.13 231.04l18.5 7.5098 12.436-8.7167-18.534-7.2735-12.402 8.4803z"/>
  <path d="m376.23 221.41l18.389 7.2821 12.694-8.9523-18.379-7.0172-12.704 8.6874z"/>
  <path d="m390.63 211.56l18.311 7.0266 10.771-7.5433-18.156-7.0318-10.926 7.5485z"/>
  <path d="m403.33 202.79l17.895 7.1647 9.9392-7.0601-18.005-6.8593-9.8295 6.7548z"/>
  <path d="m247.19 306.88l14.197-9.9866-17.899-8.4394-14.899 9.596 18.6 8.83z"/>
  <path d="m263.45 295.56l14.651-9.8486-18.353-8.5774-14.899 9.5959 18.6 8.83z"/>
  <path d="m279.9 284.57l14.802-9.7796-17.899-7.9562-14.521 9.3199 17.617 8.4158z"/>
  <path d="m296.29 273.5l15.347-10.182-17.444-7.8537-15.648 10.182 17.745 7.8538z"/>
  <path d="m313.14 262.04l13.063-8.8823-17.205-7.5993-12.945 8.6179 17.088 7.8637z"/>
  <path d="m327.69 251.92l12.722-8.3301-16.802-7.6111-12.856 8.4917 16.936 7.4495z"/>
  <path d="m342.29 242.37l12.434-8.7107-16.297-7.5302-12.921 8.5154 16.785 7.7256z"/>
  <path d="m356.7 232.76l12.806-8.9129-16.264-7.0757-12.866 8.3271 16.323 7.6615z"/>
  <path d="m371.07 222.55l12.081-7.9584-16.156-6.6823-11.852 7.5678 15.926 7.073z"/>
  <path d="m384.94 213.41l10.566-7.3638-15.856-6.5758-10.965 7.3183 16.255 6.6213z"/>
  <path d="m397.12 204.92l9.1289-6.4665-16.083-5.8166-8.7715 5.7998 15.726 6.4832z"/>
 </g>
 <g stroke-linecap="round" stroke-linejoin="round">
  <g fill="#808080" stroke-width=".2">
   <path d="m440.75 237.6l9.2121-6.9993c0.91461-0.6949 0.65625-1.673-0.58331-2.1962l-12.711-5.3653c-1.3072-0.55179-3.1355-0.4254-4.0949 0.28685l-9.6651 7.1764c-0.97659 0.72513-0.66885 1.7414 0.68539 2.2751l13.164 5.1883c1.2834 0.50581 3.0624 0.34123 3.9929-0.3658" opacity=".997"/>
   <path d="m327.78 295.92l-13.304-5.8852c-1.1444-0.5062-2.7374-0.44012-3.5744 0.14786l-9.6825 6.8028c-0.84753 0.59546-0.61282 1.4918 0.52887 2.0099l13.274 6.0242c1.1678 0.52997 2.7946 0.46762 3.6449-0.14004l9.7127-6.9417c0.83945-0.60007 0.57095-1.5001-0.5994-2.0178" opacity=".997"/>
   <path d="m347.97 202.73l12.732 5.0116c0.9194 0.36189 1.0727 1.0411 0.34189 1.5227l-10.307 6.7931c-0.7402 0.48788-2.0751 0.5815-2.991 0.21008l-12.684-5.1432c-0.89438-0.3627-1.0199-1.0396-0.28314-1.518l10.259-6.6614c0.72742-0.47235 2.0344-0.56819 2.9323-0.21481" opacity=".997"/>
   <path d="m287.64 284.03l15.578 7.0772c1.1337 0.51508 1.4347 1.3608 0.67084 1.8961l-10.875 7.6214c-0.78842 0.55252-2.3415 0.56442-3.478 0.026886 0 0-15.612-7.3833-15.612-7.3833-1.092-0.51654-1.3314-1.3589-0.54086-1.889l10.909-7.3153c0.76645-0.51398 2.2579-0.52927 3.348-0.034027" opacity=".997"/>
   <path d="m253.19 263.18s13.717 6.8225 13.717 6.8225c0.56744 0.28223 0.60797 0.776 0.091949 1.1075l-12.154 7.8098c-0.5148 0.33078-1.3958 0.37781-1.9764 0.10492l-14.036-6.596c-0.61017-0.28671-0.67706-0.79202-0.14871-1.1324l12.473-8.0362c0.52963-0.34125 1.437-0.37674 2.0333-0.080109" opacity=".997"/>
   <path d="m270.04 367.69l-15.575 11.984c-0.78906 0.60709-2.1197 0.73398-2.9823 0.28372l-17.273-9.016c-0.8598-0.44885-0.90457-1.2921-0.1015-1.89l15.852-11.803c0.77789-0.57922 2.0844-0.69089 2.9304-0.2511l16.996 8.8348c0.84876 0.44122 0.91769 1.2693 0.15338 1.8574" opacity=".997"/>
   <path d="m313.82 306.46l-14.324-6.5127c-0.83124-0.37796-2.0767-0.27686-2.795 0.2272l-12.477 8.7567c-0.74698 0.52426-0.67386 1.2634 0.16653 1.6568l14.484 6.7807c0.86035 0.40274 2.1486 0.29147 2.8862-0.24887l12.317-9.0248c0.70886-0.51935 0.59286-1.2484-0.25766-1.6351" opacity=".997"/>
   <path d="m270.05 252.55l13.3 6.5396c0.702 0.34518 0.73434 0.96692 0.072052 1.394 0 0-12.667 8.1685-12.667 8.1685-0.6676 0.43051-1.7698 0.49585-2.4709 0.14648l-13.281-6.619c-0.69336-0.34561-0.71454-0.96698-0.047913-1.3933l12.648-8.0891c0.66138-0.42294 1.7524-0.4886 2.4468-0.14716" opacity=".997"/>
   <path d="m216.67 356.81l29.357-20.505c2.0503-1.4321 4.4971-2.1718 5.5008-1.668l13.613 6.831c1.0114 0.50754 0.2338 2.0937-1.7581 3.5664l-28.528 21.093c-2.239 1.6554-4.9196 2.554-5.9929 2.0026l-14.442-7.4186c-1.0646-0.54684-0.052948-2.2918 2.2504-3.9006" opacity=".997"/>
   <path d="m256.05 324.01l-15.456-7.5144c-1.2189-0.59262-2.8962-0.5903-3.7647 0.005188l-11.022 7.5562c-0.89468 0.61334-0.63171 1.601 0.59381 2.2144l15.545 7.7813c1.2613 0.63129 2.9947 0.6282 3.8824-0.006958l10.934-7.823c0.86142-0.61639 0.54224-1.6033-0.71149-2.2128" opacity=".997"/>
   <path d="m243.71 307.25l-14.232-6.7107c-1.0127-0.47742-2.4819-0.44022-3.298 0.08548l-11.845 7.6292c-0.87549 0.56378-0.73657 1.4217 0.31567 1.9212l14.79 7.0212c1.0586 0.50253 2.5858 0.43277 3.4201-0.15411l11.287-7.9397c0.77756-0.54697 0.58069-1.3723-0.43787-1.8525" opacity=".997"/>
   <path d="m203.52 295.24l14.516 6.9947c0.70496 0.33969 0.80072 0.92206 0.21408 1.3062l-12.253 8.0231c-0.60544 0.39636-1.6718 0.43817-2.3904 0.093109l-14.796-7.1054c-0.7208-0.34613-0.80194-0.93994-0.18268-1.331l12.533-7.9125c0.60007-0.37882 1.6518-0.40912 2.359-0.068329" opacity=".997"/>
   <path d="m302.54 342.86l-11.876 9.1115c-0.75296 0.5777-2.1857 0.57864-3.2053 0.004242l-15.515-8.7398c-0.91913-0.51773-1.0694-1.3634-0.34293-1.898l11.468-8.4399c0.70468-0.51865 2.0272-0.55237 2.9714-0.073975l15.923 8.0684c1.0454 0.52976 1.3058 1.4081 0.57675 1.9675" opacity=".997"/>
   <path d="m352.56 232.66s-11.97-5.5308-11.97-5.5308c-1.2007-0.55476-2.9128-0.51036-3.8419 0.1019l-9.4894 6.2537c-0.97205 0.64061-0.76172 1.6166 0.47492 2.1858l12.328 5.6742c1.2325 0.56731 2.9803 0.49438 3.9156-0.16087l9.1313-6.3972c0.89414-0.62639 0.64804-1.5738-0.54868-2.1268" opacity=".997"/>
   <path d="m338.44 242.7s-12.786-5.792-12.786-5.792c-1.1268-0.51041-2.7234-0.46786-3.5772 0.0961l-9.784 6.4623c-0.84827 0.5603-0.61484 1.4141 0.52094 1.9136l12.888 5.6691c1.1067 0.48677 2.6714 0.43564 3.5109-0.11401l9.6818-6.3393c0.84491-0.55324 0.64316-1.3984-0.45465-1.8958" opacity=".997"/>
   <path d="m420.99 233.61l14.838 5.795c0.93146 0.36378 1.1602 1.0456 0.50928 1.5274l-10.787 7.9834c-0.65399 0.48402-1.9125 0.56209-2.8181 0.17639l-14.425-6.1429c-0.84079-0.35808-1.0088-1.018-0.37988-1.4808l10.374-7.6355c0.62616-0.46085 1.8238-0.56084 2.6888-0.22304" opacity=".997"/>
   <path d="m293.12 274.09l-14.842-6.5974c-0.82007-0.36453-2.0238-0.30698-2.7021 0.12842l-12.042 7.7288c-0.69495 0.44608-0.60751 1.1149 0.19928 1.5003l14.608 6.9785c0.85996 0.41083 2.1257 0.3652 2.8344-0.10303l12.276-8.11c0.69125-0.45673 0.54178-1.1374-0.33151-1.5256" opacity=".997"/>
   <path d="m333.21 212.3s12.702 5.1248 12.702 5.1248c0.91199 0.36795 1.0051 1.0891 0.20682 1.6175l-11.33 7.4999c-0.81885 0.54199-2.2201 0.67494-3.1398 0.29748l-12.808-5.2564c-0.90823-0.37273-0.97253-1.1019-0.14612-1.6344l11.436-7.3682c0.80582-0.51916 2.1783-0.64414 3.079-0.28068" opacity=".997"/>
   <path d="m316.98 222.84l12.887 5.0964c0.93359 0.36922 1.0525 1.084 0.26334 1.6029l-11.225 7.3816c-0.81302 0.53464-2.2233 0.65504-3.1588 0.26971 0 0-12.909-5.3174-12.909-5.3174-0.90707-0.37361-0.97916-1.092-0.16473-1.6105l11.247-7.1605c0.79092-0.50352 2.1544-0.62033 3.0602-0.26215" opacity=".997"/>
   <path d="m364.23 191.98s13.684 5.3118 13.684 5.3118c0.58313 0.22632 0.63559 0.68556 0.11627 1.0304l-12.643 8.395c-0.55362 0.36757-1.4845 0.47377-2.0855 0.23737l-14.104-5.5479c-0.59515-0.23412-0.61264-0.71071-0.040741-1.0679l13.064-8.1589c0.53662-0.33518 1.4325-0.42398 2.01-0.1998" opacity=".997"/>
   <path d="m271.68 294.2s16.989 7.9117 16.989 7.9117c0.75531 0.35178 0.92618 0.9389 0.38263 1.3166l-12.354 8.5836c-0.5509 0.38272-1.6057 0.40445-2.3645 0.048553l-17.066-8.0056c-0.75326-0.35336-0.91293-0.94266-0.35858-1.3213l12.43-8.4896c0.54694-0.37357 1.5906-0.3931 2.3404-0.043915" opacity=".997"/>
   <path d="m300.74 232.76l13.735 5.7029c0.69217 0.28743 0.78626 0.8288 0.20886 1.2144l-11.876 7.9325c-0.60739 0.4057-1.6654 0.49074-2.3702 0.19006l-13.981-5.9637c-0.68945-0.29407-0.74393-0.84705-0.12418-1.2393l12.122-7.6718c0.58948-0.37302 1.6079-0.44646 2.2854-0.16515" opacity=".997"/>
   <path d="m211.87 329.41l-15.178-7.4588c-0.87689-0.43097-2.5442-0.14795-3.743 0.63592l-20.998 13.731c-1.2676 0.82883-1.5817 1.8677-0.69937 2.3278l15.28 7.9668c0.91193 0.47543 2.6662 0.16449 3.9283-0.69544l20.896-14.239c1.1923-0.81247 1.4195-1.8235 0.51413-2.2683" opacity=".997"/>
   <path d="m186.6 305.43s15.664 7.5066 15.664 7.5066c0.51608 0.24731 0.58298 0.67975 0.14896 0.96933l-13.7 9.142c-0.44614 0.2977-1.2179 0.32852-1.7293 0.069214l-15.516-7.8671c-0.48572-0.24628-0.52075-0.67456-0.07962-0.96039l13.552-8.7816c0.42944-0.27832 1.1693-0.31323 1.6598-0.078125" opacity=".997"/>
   <path d="m227.62 318.32l-14.603-7.0497c-1.0701-0.5166-2.5897-0.48428-3.4092 0.072388l-11.148 7.5725c-0.83087 0.56439-0.64075 1.4433 0.42841 1.9708l14.591 7.1992c1.0909 0.5383 2.6406 0.50842 3.4725-0.0672l11.16-7.722c0.82022-0.5676 0.59994-1.4489-0.49176-1.976" opacity=".997"/>
   <path d="m271.88 312.69s-15.369-7.2014-15.369-7.2014c-1.1906-0.55786-2.8438-0.52622-3.7132 0.069733l-11.022 7.5562c-0.89386 0.61279-0.6713 1.5803 0.50574 2.1707l15.201 7.6242c1.2558 0.62988 3.0037 0.61704 3.9117-0.030426l11.19-7.9791c0.88211-0.62906 0.56488-1.6153-0.70413-2.2099" opacity=".997"/>
   <path d="m240.48 335.39s-16.152-7.7598-16.152-7.7598c-1.1374-0.54636-3.4771-0.017639-5.2529 1.188l-25.47 17.293c-1.8602 1.263-2.4459 2.7498-1.306 3.3311l16.194 8.2573c1.1714 0.59729 3.6161 0.029572 5.4739-1.2703l25.427-17.79c1.7721-1.2399 2.2529-2.6877 1.085-3.2488" opacity=".997"/>
   <path d="m237.21 273.65l13.853 6.5713c0.67563 0.32046 0.74243 0.90918 0.1477 1.3212l-12.716 8.8086c-0.64313 0.44553-1.7295 0.53461-2.4335 0.1983l-14.431-6.8936c-0.69983-0.33432-0.72009-0.9501-0.047791-1.3792l13.294-8.4863c0.62186-0.397 1.6617-0.45904 2.3336-0.14032" opacity=".997"/>
   <path d="m280.8 330.28l-14.573-6.7782c-0.88367-0.41098-2.1401-0.341-2.8195 0.1557l-10.879 7.9522c-0.67795 0.49554-0.53299 1.2369 0.32748 1.6635l14.19 7.0348c0.91098 0.4516 2.2115 0.40454 2.9133-0.10702l11.262-8.2088c0.70343-0.51276 0.51431-1.277-0.42123-1.7122" opacity=".997"/>
   <path d="m285.85 355.55l-10.999 8.3519c-1.1167 0.84793-3.1564 0.93896-4.5784 0.19827l-14.673-7.643c-1.5186-0.79105-1.7884-2.133-0.59943-3.0024l11.704-8.559c1.1556-0.845 3.2531-0.86649 4.6979-0.054443l13.968 7.8501c1.3544 0.76117 1.5663 2.0335 0.47977 2.8586" opacity=".997"/>
   <path d="m317.8 331.2l-10.654 8.1897c-0.9371 0.7204-2.719 0.77344-3.9943 0.11734l-14.713-7.5683c-1.2844-0.66064-1.546-1.7689-0.58749-2.4834l10.896-8.1225c0.93726-0.69867 2.708-0.73285 3.9711-0.078156l14.471 7.501c1.2545 0.65027 1.5272 1.7398 0.61072 2.4443" opacity=".997"/>
   <path d="m297.12 318.5s-14.428-6.6433-14.428-6.6433c-0.86279-0.39731-2.1266-0.31979-2.8368 0.17477l-12.094 8.421c-0.7536 0.52472-0.65231 1.2845 0.23047 1.7025l14.769 6.9925c0.90405 0.42804 2.2245 0.33151 2.9572-0.21518l11.754-8.7701c0.68997-0.51486 0.5321-1.2556-0.3508-1.6621" opacity=".997"/>
   <path d="m219.9 284.92l14.087 6.6423c0.80762 0.38089 0.92264 1.0421 0.25668 1.4829l-11.816 7.8219c-0.68158 0.45117-1.8866 0.50168-2.7007 0.11298l-14.199-6.7796c-0.80505-0.38446-0.89838-1.0509-0.21048-1.4942l11.928-7.6846c0.67224-0.43317 1.8556-0.47839 2.6544-0.10172" opacity=".997"/>
   <path d="m276.2 284.83s-14.593-6.8204-14.593-6.8204c-1.0342-0.48334-2.534-0.44205-3.3651 0.093262l-11.847 7.6301c-0.85974 0.55374-0.7103 1.4006 0.33771 1.8982l14.79 7.0212c1.0628 0.50455 2.6013 0.45252 3.4469-0.11588l11.65-7.8309c0.8172-0.54938 0.62903-1.3856-0.41952-1.8756" opacity=".997"/>
   <path d="m259.54 296.03s-14.232-6.7106-14.232-6.7106c-1.0126-0.47745-2.4819-0.44025-3.298 0.085419l-11.845 7.6292c-0.87546 0.56387-0.73654 1.4217 0.31564 1.9212l14.79 7.0212c1.0586 0.50256 2.5858 0.43274 3.4201-0.15411l11.287-7.9397c0.77756-0.54697 0.58075-1.3723-0.4378-1.8526" opacity=".997"/>
   <path d="m410.39 260.36l11.567-8.744c0.48257-0.36482 0.33197-0.88707-0.33588-1.1708l-15.329-6.5131c-0.63278-0.26884-1.527-0.204-2.0066 0.14532l-11.491 8.3681c-0.49506 0.36052-0.3884 0.87946 0.24094 1.1637 0 0 15.253 6.8891 15.253 6.8891 0.66482 0.30023 1.603 0.23868 2.1015-0.13818" opacity=".997"/>
   <path d="m379.47 196.11s-13.448-5.237-13.448-5.237c-0.58652-0.22838 0.066284-1.1291 1.4547-2.0145l29.06-18.532c1.1938-0.76141 2.5998-1.2125 3.1595-1.0155l12.816 4.512c0.5759 0.20279 0.10632 0.99875-1.0602 1.7889l-28.428 19.257c-1.3599 0.92116-2.9491 1.4774-3.5542 1.2417" opacity=".997"/>
   <path d="m184.98 324.04s-14.9-7.5006-14.9-7.5006c-0.7348-0.3699-1.9507-0.25794-2.727 0.25076l-15.585 10.214c-0.77786 0.50977-0.82007 1.2231-0.093903 1.5997 0 0 14.725 7.6357 14.725 7.6357 0.74225 0.38492 1.9737 0.2792 2.7602-0.23734l15.76-10.349c0.78497-0.51535 0.81165-1.235 0.060577-1.6131" opacity=".997"/>
   <path d="m449.36 186.9l-29.734-10.53c-2.0374-0.72156-4.6219-0.69449-5.7628 0.07457l-19.886 13.406c-1.1944 0.80524-1.4382 1.4975 0.87778 2.0857l11.306 4.2156c1.8289 0.68198 1.8253 0.71728 3.4134-0.33864l2.1164-1.4072c0.46286-0.30774 1.8498-0.42705 3.3369 0.15758l15.317 6.0214c1.6893 0.429 3.1567 0.55959 4.1102-0.12401l15.935-11.424c0.91766-0.65784 0.46674-1.6072-1.0305-2.1374"/>
   <path d="m374.02 263.05l-14.188-5.9673c-0.72998-0.30701-1.7686-0.23257-2.3305 0.16672l-10.796 7.6712c-0.57156 0.40622-0.45023 0.9899 0.27393 1.3091l14.078 6.2054c0.75427 0.33246 1.828 0.26315 2.4056-0.15567 0 0 10.906-7.9093 10.906-7.9093 0.56754-0.41159 0.41113-1.0005-0.34891-1.3201" opacity=".997"/>
   <path d="m309.81 262.49l-13.766-6.1976c-1.0257-0.46178-2.5808-0.35968-3.4868 0.22989l-12.348 8.0346c-0.92188 0.59988-0.82419 1.4554 0.21918 1.9172l14.003 6.1977c1.0295 0.45569 2.5864 0.33881 3.4906-0.26102l12.111-8.0348c0.88876-0.58963 0.78931-1.4304-0.22287-1.8861" opacity=".997"/>
   <path d="m303.39 273.46l14.985 6.7149c1.2122 0.54318 1.5153 1.4614 0.67609 2.0592l-10.654 7.5888c-0.86517 0.6163-2.5489 0.66064-3.7714 0.099091l-15.111-6.9402c-1.1947-0.54871-1.449-1.472-0.57382-2.0699l10.779-7.3635c0.84927-0.58017 2.4842-0.61942 3.6692-0.08847" opacity=".997"/>
   <path d="m285.16 243.19l13.034 5.4667c0.99454 0.41708 1.1991 1.1646 0.44766 1.6743l-10.84 7.353c-0.79636 0.54022-2.2227 0.59076-3.1868 0.11557l-12.607-6.2141c-0.83972-0.4139-0.8938-1.1355-0.13043-1.6197l10.414-6.6051c0.72345-0.45885 1.999-0.53558 2.8691-0.17062" opacity=".997"/>
   <path d="m436.76 217.96l29.92-22.055c1.3979-1.0305 1.9961-2.0444 1.3474-2.2762l-12.944-4.6261c-0.61108-0.21843-2.2083 0.39812-3.5871 1.3849l-29.469 21.092c-1.4901 1.0666-2.2208 2.1396-1.6318 2.4031l12.494 5.589c0.62695 0.28044 2.3568-0.39529 3.8717-1.512" opacity=".997"/>
   <path d="m367.27 222.88l-11.943-5.196c-1.1598-0.50456-2.8271-0.43105-3.748 0.16498l-9.4487 6.1152c-0.97226 0.62921-0.82715 1.5752 0.33572 2.121l11.987 5.6261c1.2393 0.5817 3.0259 0.50713 3.9947-0.16711l9.4047-6.5453c0.91568-0.63727 0.6514-1.5822-0.58206-2.1189" opacity=".997"/>
   <path d="m343.94 284.44l-13.612-6.0002c-1.0033-0.4422-2.4787-0.32291-3.3095 0.26791l-11.321 8.0507c-0.84515 0.60104-0.71423 1.4472 0.29495 1.8969l13.693 6.1018c1.0178 0.45358 2.514 0.3284 3.353-0.28018l11.24-8.1522c0.82489-0.5983 0.67331-1.4387-0.3385-1.8847" opacity=".997"/>
   <path d="m337.77 269.07l9.7667-6.8708c0.77362-0.54428 0.43222-1.4071-0.76355-1.9348l-14.851-6.5543c-1.1799-0.52072-2.7569-0.51018-3.5378 0.02388l-9.8577 6.7409c-0.79596 0.54425-0.48282 1.4101 0.70419 1.9411l14.942 6.6842c1.2032 0.53821 2.8084 0.52463 3.597-0.030121" opacity=".997"/>
   <path d="m352.42 258.71l9.9476-7.1916c0.96097-0.69476 0.6182-1.7286-0.76007-2.3208l-13.584-5.8366c-1.3426-0.57686-3.2251-0.51343-4.2293 0.14476l-10.389 6.8092c-1.078 0.70653-0.83823 1.7722 0.54724 2.3865l14.025 6.2191c1.4239 0.63135 3.4094 0.53607 4.4421-0.21057" opacity=".997"/>
   <path d="m387.04 252.59s-12.745-5.4214-12.745-5.4214c-0.94855-0.40349-2.2644-0.3349-2.9521 0.15598l-9.5891 6.844c-0.73257 0.52278-0.52762 1.28 0.46176 1.6953l13.29 5.5791c0.978 0.41058 2.3231 0.30866 3.0138-0.2261l9.0446-7.0018c0.64886-0.50226 0.41449-1.2261-0.52368-1.6251" opacity=".997"/>
   <path d="m401.4 241.95l-12.403-5.0964c-0.97339-0.39998-2.3928-0.27086-3.186 0.28925l-10.029 7.0818c-0.81104 0.57266-0.68741 1.3702 0.28076 1.7884l12.34 5.3295c1.006 0.43451 2.4763 0.30815 3.2926-0.28354l10.092-7.3149c0.798-0.57843 0.62357-1.3787-0.38736-1.794" opacity=".997"/>
   <path d="m367.56 247.89l9.7158-6.8976c0.96069-0.68202 0.55716-1.6939-0.892-2.2659l-13.844-5.4649c-1.3267-0.52368-3.1344-0.43005-4.0644 0.20744l-9.3993 6.4431c-0.95267 0.65308-0.68576 1.633 0.60962 2.1998l13.528 5.9192c1.4169 0.61998 3.3613 0.5585 4.3468-0.14111" opacity=".997"/>
   <path d="m323.47 279.06l9.9326-6.9875c0.72818-0.51221 0.40674-1.3242-0.71872-1.821 0 0-15.104-6.6656-15.104-6.6656-1.1104-0.49002-2.5946-0.48013-3.3295 0.02243l-10.025 6.8555c-0.74918 0.51233-0.45453 1.3272 0.6626 1.8269l15.196 6.7977c1.1325 0.50656 2.6433 0.49384 3.3856-0.028412" opacity=".997"/>
   <path d="m359.25 273.03l-13.128-5.7342c-1.0386-0.45377-2.5686-0.32669-3.433 0.28494l-10.921 7.7278c-0.88266 0.62448-0.75787 1.5037 0.28238 1.9711l13.15 5.9084c1.0633 0.47775 2.6307 0.34805 3.5116-0.29062l10.899-7.9017c0.86258-0.6254 0.70032-1.5019-0.36099-1.9656" opacity=".997"/>
   <path d="m323.87 252.13l-12.636-5.5811c-1.2436-0.54921-3.0015-0.48439-3.9464 0.14462l-9.5076 6.3295c-0.9595 0.63876-0.74167 1.6098 0.4932 2.178l12.55 5.7753c1.2791 0.58862 3.0925 0.53314 4.0608-0.1253l9.5939-6.5236c0.95334-0.64822 0.68002-1.6286-0.60767-2.1974" opacity=".997"/>
   <path d="m405.86 222.98l9.953-7.0623c0.98373-0.69797 2.6506-0.87065 3.7409-0.38809l10.967 4.8543c1.1064 0.48967 1.2152 1.4567 0.24054 2.169l-9.8632 7.2085c-1.001 0.7316-2.7078 0.91518-3.8235 0.41064l-11.057-5.0004c-1.099-0.49709-1.1679-1.4749-0.1579-2.1916" opacity=".997"/>
   <path d="m393.42 205.18l-11.646-4.8296c-1.1757-0.48755-2.7618-0.45465-3.5565 0.075775l-8.0533 5.3749c-0.81845 0.54619-0.50717 1.3829 0.6983 1.8739l11.939 4.863c1.1858 0.48303 2.7755 0.4279 3.5641-0.12166l7.7602-5.4083c0.76593-0.53377 0.4509-1.3482-0.70596-1.828" opacity=".997"/>
   <path d="m422.56 209l7.2999-5.1854c0.724-0.51428 0.20724-1.3464-1.1518-1.8641l-13.222-5.0373c-1.2902-0.49152-2.9003-0.48988-3.6166 0.002319l-7.2194 4.9611c-0.72977 0.50146-0.2905 1.3173 0.99149 1.8305 0 0 13.142 5.2616 13.142 5.2616 1.3511 0.54094 3.0388 0.55559 3.7769 0.031326" opacity=".997"/>
   <path d="m410.38 217.58l7.9111-5.5403c0.78894-0.55249 0.35413-1.4112-0.97534-1.9261l-13.335-5.1647c-1.3414-0.51953-3.0659-0.49329-3.8662 0.059555l-8.0251 5.5441c-0.80704 0.55753-0.36725 1.425 0.98563 1.9441l13.449 5.1608c1.3408 0.51451 3.0604 0.47952 3.856-0.077591" opacity=".997"/>
   <path d="m403.65 197.76l-11.803-4.2687c-1.1057-0.39984-2.4943-0.38254-3.1272 0.035919l-6.442 4.2595c-0.65759 0.43486-0.32922 1.1404 0.75 1.5853l11.54 4.7578c1.2381 0.51041 2.8005 0.53388 3.486 0.048248l6.7044-4.7491c0.65756-0.4658 0.15573-1.2118-1.1085-1.669" opacity=".997"/>
   <path d="m380.94 213.67l-11.864-4.9072c-1.1525-0.4767-2.7686-0.41623-3.6307 0.13426l-8.7043 5.5582c-0.88138 0.56284-0.68256 1.4208 0.45306 1.9251l11.695 5.194c1.208 0.53645 2.9105 0.49298 3.8094-0.099152l8.8731-5.845c0.87845-0.57866 0.59314-1.4536-0.63168-1.9602" opacity=".997"/>
   <path d="m415.41 231.46l-11.133-4.9717c-1.132-0.50551-2.8074-0.37651-3.7559 0.2921l-9.6138 6.7768c-0.97723 0.68884-0.82031 1.6498 0.35114 2.1516l11.518 4.9338c1.1358 0.4865 2.8046 0.32455 3.7424-0.36024l9.2284-6.7389c0.91071-0.66513 0.76034-1.5931-0.33768-2.0835" opacity=".997"/>
   <path d="m382.3 237.38l9.1333-6.402c0.90686-0.63562 0.51932-1.5848-0.86429-2.1278l-13.612-5.3419c-1.3432-0.52708-3.149-0.45319-4.0535 0.16531l-9.1084 6.2284c-0.91986 0.62903-0.58493 1.5731 0.75546 2.1173l13.587 5.5155c1.3812 0.56068 3.2397 0.4919 4.1623-0.15477" opacity=".997"/>
   <path d="m396.32 227.49l9.323-6.5751c0.92331-0.65115 0.55753-1.5973-0.815-2.1214l-13.498-5.1537c-1.3313-0.5083-3.1432-0.40862-4.0674 0.2234l-9.3306 6.3804c-0.94464 0.64598-0.63705 1.5905 0.6947 2.1179l13.506 5.3482c1.3736 0.54393 3.2436 0.44591 4.1877-0.21991" opacity=".997"/>
  </g>
  <g transform="matrix(1.7117 0 0 1.5618 -1.0164 -213.1)" fill="#4d4d4d">
   <g stroke-width=".2">
    <path d="m156.5 370.65l-7.4956 6.3212c-0.37973 0.32025-1.0201 0.38715-1.4352 0.14966l-8.3126-4.7555c-0.41377-0.23672-0.4353-0.68152-0.048843-0.99689l7.6289-6.2256c0.37437-0.30551 1.0031-0.36441 1.4103-0.13245l8.1793 4.6599c0.40848 0.23273 0.44165 0.6695 0.073822 0.97968" opacity=".997"/>
    <path d="m128.39 363.63l15.61-11.95c1.0903-0.8346 2.3913-1.2656 2.925-0.97211l7.2384 3.981c0.53783 0.29581 0.12431 1.2202-0.93486 2.0785l-15.17 12.292c-1.1905 0.96472-2.6159 1.4884-3.1866 1.1671l-7.6793-4.3235c-0.56606-0.3187-0.028137-1.3356 1.1967-2.2732" opacity=".997"/>
    <path d="m139.69 350.69l-8.4971-4.4742c-0.59833-0.31506-1.8293-0.010193-2.7634 0.68497l-13.399 9.9709c-0.97862 0.72824-1.2867 1.5855-0.68706 1.9207l8.5195 4.7611c0.61629 0.34442 1.9024 0.017059 2.8797-0.73242l13.377-10.258c0.93227-0.71487 1.1852-1.5497 0.57079-1.8732" opacity=".997"/>
    <path d="m122.81 346.72l-7.6963-4.1451c-0.44464-0.23947-1.29-0.082245-1.8979 0.35339l-10.647 7.6307c-0.64272 0.4606-0.802 1.038-0.35461 1.2936l7.748 4.4274c0.46237 0.26422 1.3519 0.091431 1.9918-0.38648l10.596-7.9129c0.60457-0.45151 0.71974-1.0133 0.2607-1.2606" opacity=".997"/>
    <path d="m107.33 343.25l-7.512-4.1446c-0.37047-0.20441-0.98348-0.14252-1.3748 0.13858l-7.8573 5.6437c-0.39217 0.28171-0.41345 0.67584-0.047348 0.88391l7.4236 4.2193c0.37421 0.21271 0.99504 0.1543 1.3916-0.1311l7.9458-5.7184c0.39575-0.28479 0.4092-0.68243 0.030533-0.89133" opacity=".997"/>
    <path d="m166.67 363.37l-5.7721 4.8037c-0.58601 0.4877-1.6564 0.54007-2.4026 0.11404l-7.7-4.396c-0.79691-0.45496-0.93851-1.2268-0.31456-1.7269l6.1422-4.9228c0.60642-0.48602 1.7072-0.49835 2.4654-0.031342l7.33 4.5151c0.71074 0.43784 0.82193 1.1696 0.25176 1.6441" opacity=".997"/>
    <path d="m176.34 355.25l-6.1686 5.1872c-0.39111 0.32886-1.1353 0.32938-1.6649 0.00238l-8.059-4.9756c-0.47743-0.29477-0.55548-0.77622-0.17816-1.0806l5.9566-4.8049c0.36603-0.29523 1.053-0.31445 1.5435-0.042084l8.271 4.5934c0.54303 0.30158 0.67825 0.80167 0.29956 1.1201" opacity=".997"/>
    <path d="m185.25 347.75l-5.5074 4.6401c-0.48442 0.40814-1.4055 0.43817-2.0648 0.066498l-7.6059-4.288c-0.66392-0.3743-0.79918-1.0022-0.3037-1.407l5.6327-4.602c0.48451-0.39584 1.3999-0.41522 2.0528-0.04425l7.4806 4.2498c0.64844 0.36841 0.78943 0.98566 0.31566 1.3848" opacity=".997"/>
    <path d="m163.61 347.36l-7.4321-3.7887c-0.45065-0.22971-1.0914-0.19058-1.4379 0.087036l-5.5479 4.4449c-0.34575 0.27698-0.27182 0.69134 0.16699 0.92981l7.2368 3.9321c0.46457 0.25241 1.1278 0.2261 1.4857-0.059845l5.7433-4.5883c0.35873-0.28659 0.26228-0.71378-0.21484-0.957" opacity=".997"/>
    <path d="m149.28 343.38l-8.0848-4.3081c-0.63757-0.33975-1.5149-0.33841-1.9693 0.002991l-5.7656 4.332c-0.468 0.35162-0.33044 0.91785 0.31062 1.2696l8.1312 4.4611c0.65976 0.36197 1.5665 0.36017 2.0309-0.003967l5.7192-4.485c0.45059-0.35336 0.28363-0.91916-0.37219-1.2686" opacity=".997"/>
    <path d="m109.63 332.01l8.0997 4.2542c0.26686 0.14014 0.30147 0.38516 0.077042 0.54929l-7.0839 5.181c-0.23068 0.1687-0.62972 0.18619-0.89414 0.039246l-8.0231-4.4585c-0.25114-0.13956-0.26926-0.38226-0.041168-0.54425l7.0073-4.9767c0.22208-0.15772 0.60463-0.17749 0.85826-0.044281" opacity=".997"/>
    <path d="m132.65 339.75l-7.5926-4.0174c-0.55637-0.29437-1.3464-0.27597-1.7725 0.041229l-5.7964 4.3152c-0.43202 0.32162-0.33314 0.82251 0.22272 1.1231l7.5865 4.1025c0.56723 0.30673 1.373 0.2897 1.8055-0.0383l5.8025-4.4004c0.42648-0.32342 0.31195-0.82568-0.25568-1.126" opacity=".997"/>
    <path d="m142.03 332.68l-7.3874-3.8176c-0.52562-0.27161-1.2882-0.25046-1.7118 0.048584l-6.1483 4.3401c-0.45441 0.32077-0.38232 0.80878 0.16383 1.093l7.677 3.9943c0.54948 0.28589 1.3422 0.24618 1.7752-0.087677l5.8587-4.5168c0.40361-0.31116 0.30142-0.78067-0.22726-1.0539" opacity=".997"/>
    <path d="m119.49 325.48l7.6486 4.0394c0.37144 0.1962 0.42192 0.53244 0.11281 0.7543l-6.4561 4.6333c-0.31898 0.22891-0.8809 0.25305-1.2595 0.053802l-7.7961-4.1033c-0.37979-0.19989-0.42253-0.54282-0.096252-0.76858l6.6036-4.5694c0.31616-0.21878 0.87033-0.23624 1.2429-0.039459" opacity=".997"/>
    <path d="m129.05 318.87l7.339 3.7927c0.42075 0.21744 0.48067 0.595 0.13371 0.84671l-6.1558 4.4662c-0.35507 0.2576-0.98286 0.28644-1.407 0.064484l-7.397-3.871c-0.41939-0.21951-0.46802-0.60007-0.10962-0.85315l6.2138-4.3878c0.35024-0.24728 0.96675-0.27313 1.3829-0.058075" opacity=".997"/>
    <path d="m139.13 311.66l7.383 3.8384c0.36008 0.1872 0.39569 0.53107 0.07872 0.77173l-6.7768 5.1453c-0.34277 0.26025-0.92175 0.31229-1.2969 0.11588l-7.6912-4.0267c-0.37299-0.19525-0.38379-0.55493-0.025467-0.80563l7.0849-4.957c0.33142-0.23187 0.8856-0.2681 1.2437-0.08194" opacity=".997"/>
    <path d="m151.48 325.6l-7.5861-3.9203c-0.53973-0.2789-1.3229-0.2572-1.7579 0.049896l-6.3137 4.4568c-0.46664 0.32941-0.39258 0.83057 0.16824 1.1224l7.8835 4.1017c0.56426 0.29358 1.3783 0.25284 1.823-0.090027l6.0163-4.6383c0.41447-0.31955 0.30952-0.80167-0.2334-1.0822" opacity=".997"/>
    <path d="m158.52 336.15l-8.0295-4.1237c-0.62206-0.31949-1.4858-0.30136-1.94 0.039948l-5.7587 4.3268c-0.46701 0.35089-0.35072 0.90491 0.26422 1.243l7.9418 4.3658c0.6561 0.36069 1.5693 0.3533 2.0437-0.017426l5.8464-4.569c0.46091-0.3602 0.29517-0.92493-0.36783-1.2654" opacity=".997"/>
    <path d="m173.25 339.9l-7.5147-3.7922c-0.44937-0.22675-1.1076-0.18253-1.4775 0.099762l-6.2988 4.8069c-0.39249 0.29953-0.33974 0.73325 0.12004 0.97183l7.6919 3.9915c0.47086 0.24435 1.1586 0.18927 1.5402-0.1228l6.1216-5.0062c0.35934-0.29388 0.27713-0.71677-0.18268-0.94882" opacity=".997"/>
   </g>
   <path d="m179.6 338.57l47.572-38.162c0.56799-0.45178 1.7401-0.46115 2.6309-0.021423l6.3279 3.1045c0.90414 0.44638 1.1834 1.178 0.62314 1.6409l-46.852 39.255c-0.69701 0.5759-2.0362 0.60504-2.999 0.064758l-6.8694-3.9098c-0.94682-0.53134-1.1385-1.411-0.4334-1.9719" stroke-width=".7"/>
   <g stroke-width=".2">
    <path d="m183.01 332.21l-7.464-3.7197c-0.43318-0.21585-1.0822-0.15808-1.4565 0.12979l-6.5021 5.0013c-0.38922 0.29941-0.3511 0.72159 0.086807 0.94626l7.5475 3.8728c0.44827 0.23001 1.1196 0.16644 1.504-0.14218l6.4186-5.1544c0.36938-0.29663 0.30896-0.71298-0.13426-0.93387" opacity=".997"/>
    <path d="m148.49 304.95l7.2636 3.9596c0.30048 0.16379 0.32193 0.45035 0.048676 0.64279l-6.4359 4.5325c-0.2726 0.19199-0.7391 0.21927-1.0466 0.060913l-7.4326-3.8282c-0.32312-0.16641-0.35852-0.45966-0.078766-0.6572l6.605-4.664c0.28044-0.19803 0.76091-0.21863 1.0767-0.046509" opacity=".997"/>
    <path d="m160.93 318.28l-7.5067-3.8452c-0.532-0.27249-1.3034-0.24921-1.731 0.052612l-6.0938 4.3017c-0.44224 0.3122-0.36539 0.78964 0.17372 1.0701l7.608 3.9584c0.54671 0.28445 1.3381 0.25513 1.7731-0.065308l5.9925-4.4149c0.4204-0.30972 0.32358-0.78116-0.21578-1.0574" opacity=".997"/>
    <path d="m159.4 324.81l8.806 4.4946c0.3915 0.1998 0.48007 0.53339 0.19832 0.74792l-6.4032 4.8763c-0.28558 0.21747-0.83231 0.2298-1.2256 0.027588l-8.8458-4.548c-0.39043-0.20071-0.47321-0.53552-0.18587-0.75061l6.4431-4.823c0.28351-0.21222 0.82446-0.2233 1.2131-0.024933" opacity=".997"/>
    <path d="m168.7 318.29l8.0889 4.0276c0.58867 0.29309 0.74495 0.77441 0.34834 1.079l-5.6468 4.3373c-0.40938 0.31442-1.2158 0.3212-1.8059 0.01532l-8.1063-4.2018c-0.56702-0.29392-0.69133-0.77332-0.28085-1.075l5.6642-4.1631c0.39798-0.29251 1.1724-0.30118 1.7384-0.019348" opacity=".997"/>
    <path d="m191.35 325.54l-7.0201-3.4035c-0.60385-0.29276-1.4444-0.25455-1.886 0.08551l-5.109 3.9341c-0.4472 0.34436-0.32336 0.8627 0.27907 1.1623l7.0042 3.4839c0.6162 0.30649 1.4746 0.27045 1.9232-0.080994l5.1249-4.0145c0.44296-0.34698 0.30127-0.86749-0.31625-1.1669" opacity=".997"/>
    <path d="m158.31 298.15l7.0629 3.8064c0.37282 0.2009 0.39 0.56278 0.038284 0.81137l-6.7268 4.7545c-0.35451 0.25058-0.93988 0.28857-1.3122 0.085236l-7.0533-3.8526c-0.36824-0.20114-0.37947-0.56284-0.025452-0.81097l6.7171-4.7083c0.35123-0.24618 0.93062-0.28439 1.2994-0.085663" opacity=".997"/>
    <path d="m170.93 311.48l-7.7478-3.7746c-0.42807-0.20856-1.0564-0.17563-1.4105 0.073486l-6.286 4.4219c-0.36275 0.25519-0.31711 0.63785 0.10403 0.85834l7.6258 3.9926c0.4489 0.23502 1.1096 0.20892 1.4796-0.05896l6.408-4.64c0.36082-0.26129 0.28281-0.65073-0.17308-0.87283" opacity=".997"/>
    <path d="m177.87 311.52l7.8428 3.8518c0.6344 0.31155 0.79306 0.83826 0.35385 1.1812l-5.5758 4.353c-0.4528 0.35348-1.334 0.37897-1.9738 0.056854l-7.9084-3.9809c-0.62524-0.31476-0.75836-0.84439-0.30032-1.1873l5.6414-4.2238c0.44447-0.33276 1.3001-0.35529 1.9203-0.05072" opacity=".997"/>
    <path d="m200.73 318.18l-7.1706-3.4644c-0.52852-0.25534-1.3058-0.18646-1.7435 0.15466l-5.9641 4.6483c-0.44522 0.34698-0.37625 0.83557 0.15538 1.0952l7.2134 3.523c0.53621 0.26187 1.3244 0.18964 1.7664-0.16177l5.9213-4.7069c0.43454-0.34543 0.35468-0.83063-0.17831-1.0881" opacity=".997"/>
    <path d="m189.26 314.01l5.1614-3.9795c0.37834-0.29172 0.21133-0.75424-0.37352-1.0371l-7.8483-3.7962c-0.577-0.27911-1.3482-0.27347-1.7301 0.012787l-5.2094 3.9043c-0.38931 0.29175-0.23616 0.75586 0.34433 1.0405l7.8964 3.8715c0.58847 0.28851 1.3736 0.28125 1.7593-0.016174" opacity=".997"/>
    <path d="m180.82 304.15l-7.3215-3.6127c-0.54552-0.2692-1.3726-0.20969-1.8545 0.13397l-6.5675 4.6836c-0.49034 0.34967-0.43838 0.84839 0.11655 1.1176l7.4476 3.6128c0.54759 0.26562 1.3756 0.19748 1.8565-0.15219l6.4414-4.6836c0.4727-0.34369 0.4198-0.8338-0.11855-1.0994" opacity=".997"/>
    <path d="m167.19 292.15l6.9216 3.1817c0.52814 0.24277 0.63675 0.67783 0.23773 0.97446l-5.7566 4.2796c-0.42291 0.31439-1.1803 0.34381-1.6923 0.067261l-6.6949-3.6167c-0.44594-0.24091-0.47462-0.66089-0.06926-0.94269l5.5302-3.8443c0.38417-0.26706 1.0615-0.31171 1.5236-0.099304" opacity=".997"/>
    <path d="m189.13 297.54l-6.7119-3.2492c-0.66052-0.31976-1.5943-0.28201-2.0962 0.084198l-5.0503 3.6849c-0.50966 0.37186-0.39395 0.9372 0.26195 1.268l6.6661 3.3622c0.67946 0.34271 1.6427 0.31039 2.1571-0.072937l5.0961-3.7979c0.50635-0.37738 0.36119-0.94812-0.32282-1.2793" opacity=".997"/>
    <path d="m176.27 285.48l7.1605 3.2586c0.36087 0.16422 0.4099 0.47357 0.10892 0.69388l-6.1915 4.5326c-0.31665 0.23178-0.86822 0.28036-1.2357 0.10858l-7.2887-3.4076c-0.35942-0.16803-0.38782-0.48401-0.064728-0.7081l6.3197-4.3835c0.30731-0.21314 0.83827-0.2551 1.1915-0.094391" opacity=".997"/>
    <path d="m209.8 310.95l-7.0257-3.3636c-0.55588-0.26611-1.3747-0.19162-1.8373 0.16718l-5.845 4.5329c-0.47235 0.36633-0.40559 0.88205 0.15114 1.1562l7.0377 3.4657c0.56905 0.28024 1.4079 0.20416 1.8794-0.17047l5.8331-4.635c0.46164-0.36682 0.3748-0.88095-0.19322-1.1529" opacity=".997"/>
    <path d="m197.66 307.79l5.17-3.9862c0.40955-0.31576 0.22881-0.81634-0.40414-1.1225l-7.8615-3.8026c-0.62457-0.30209-1.4593-0.29599-1.8727 0.013855l-5.2181 3.9109c-0.42133 0.31576-0.25555 0.81812 0.37279 1.1262l7.9096 3.8779c0.63687 0.31226 1.4866 0.30438 1.904-0.017487" opacity=".997"/>
    <path d="m218.27 304.47l-7.4174-3.4191c-0.38161-0.1759-0.92456-0.13321-1.2183 0.095551l-5.644 4.3953c-0.29883 0.23273-0.23537 0.56717 0.1432 0.75006l7.3598 3.5554c0.39432 0.19049 0.95561 0.15079 1.2576-0.089203l5.7015-4.5317c0.29672-0.23581 0.21494-0.57324-0.18237-0.75638" opacity=".997"/>
    <path d="m225.89 297.78l-6.6117-3.0825c-0.4921-0.22943-1.1747-0.19043-1.5315 0.088684l-4.9746 3.8914c-0.38 0.29727-0.27368 0.72778 0.23956 0.96393l6.8943 3.1722c0.50738 0.23343 1.2052 0.17548 1.5635-0.12857l4.6921-3.9811c0.33661-0.28558 0.215-0.69714-0.27167-0.92404" opacity=".997"/>
    <path d="m240.13 301.86l5.9308-4.9137c0.24744-0.20502 0.1702-0.4985-0.17218-0.65793l-7.8596-3.66c-0.32443-0.15109-0.7829-0.11466-1.0288 0.081665l-5.8919 4.7024c-0.25382 0.20261-0.19913 0.49423 0.12354 0.65393l7.8207 3.8713c0.34088 0.16876 0.8219 0.13416 1.0775-0.077637" opacity=".997"/>
    <path d="m246.61 286.02l7.8421 3.3568c0.49228 0.21072 0.61319 0.60565 0.26914 0.88474l-5.7011 4.6244c-0.34564 0.2804-1.0108 0.32559-1.4894 0.1022l-7.6237-3.5583c-0.44437-0.20743-0.53314-0.58966-0.20078-0.85779l5.4827-4.4229c0.33093-0.26697 0.96393-0.32489 1.4211-0.12921" opacity=".997"/>
    <path d="m257.84 287.65l4.8568-4.0444c0.48218-0.40155 0.34595-0.9667-0.30756-1.269l-6.7014-3.1002c-0.68921-0.31885-1.6531-0.24582-2.1588 0.16574l-5.0956 4.1467c-0.51489 0.41901-0.35263 1.0062 0.36136 1.3146l6.9402 2.9979c0.6766 0.29227 1.6145 0.19717 2.1051-0.21136" opacity=".997"/>
    <path d="m185.73 279.11l6.5446 2.8366c0.47414 0.2055 0.53452 0.60339 0.13374 0.89221l-5.7006 4.1085c-0.4129 0.29758-1.1291 0.36459-1.6042 0.15012l-6.5559-2.9596c-0.46065-0.20798-0.49725-0.60785-0.083649-0.89642l5.7118-3.9855c0.40164-0.28024 1.0941-0.34528 1.5541-0.1459" opacity=".997"/>
    <path d="m197.4 291.37l-6.5661-3.2599c-0.57861-0.28726-1.3985-0.26331-1.837 0.054077l-5.0243 3.6372c-0.43561 0.31534-0.3157 0.79587 0.2675 1.0771l6.6186 3.1907c0.56831 0.27399 1.3719 0.24521 1.803-0.064148l4.9718-3.568c0.43388-0.31137 0.33031-0.78708-0.23346-1.067" opacity=".997"/>
    <path d="m206.19 301l5.1744-4.1c0.49989-0.39609 0.32158-0.9855-0.39536-1.3232l-7.0658-3.3275c-0.6984-0.32889-1.6776-0.29272-2.2 0.08252l-5.4042 3.882c-0.56074 0.4028-0.43599 1.0103 0.28468 1.3606l7.2955 3.5456c0.74068 0.35996 1.7734 0.30563 2.3107-0.12006" opacity=".997"/>
    <path d="m215 293.98l4.97-3.8671c0.49142-0.38238 0.28503-0.94971-0.45627-1.2704l-7.0818-3.0639c-0.67862-0.29361-1.6033-0.24112-2.0791 0.1163l-4.8081 3.6123c-0.48735 0.36615-0.35082 0.9155 0.31184 1.2333l6.9198 3.3186c0.72482 0.3476 1.7194 0.31311 2.2235-0.079102" opacity=".997"/>
    <path d="m205.9 285.08l-6.3488-3.2151c-0.63683-0.32251-1.5449-0.29669-2.0377 0.059235l-5.0332 3.6354c-0.51556 0.37238-0.40398 0.93976 0.25192 1.2706l6.5387 3.2985c0.6537 0.32977 1.5807 0.28738 2.0768-0.093536l4.8432-3.7188c0.47421-0.36414 0.34372-0.91492-0.29103-1.2364" opacity=".997"/>
    <path d="m234.35 291.03l-6.5115-2.9324c-0.51102-0.23013-1.2562-0.15585-1.6726 0.16644l-5.265 4.0748c-0.42578 0.32953-0.3609 0.78842 0.1474 1.029l6.4783 3.0666c0.52817 0.25 1.3 0.17728 1.7286-0.16318l5.2982-4.2089c0.41898-0.33286 0.32739-0.7933-0.20334-1.0323" opacity=".997"/>
    <path d="m242.62 284.34l-5.895-2.8853c-0.5994-0.29336-1.4865-0.21851-1.9888 0.16956l-5.0906 3.9329c-0.51746 0.39978-0.43439 0.95746 0.18594 1.2487l6.0991 2.8633c0.60141 0.28238 1.4851 0.18838 1.9817-0.20904l4.8865-3.9109c0.48227-0.38599 0.40265-0.92453-0.1788-1.2091" opacity=".997"/>
    <path d="m223.65 287.51l4.7868-3.6774c0.47525-0.36511 0.27216-0.91034-0.45297-1.2222l-7.1342-3.0684c-0.70395-0.30276-1.6504-0.26032-2.1244 0.094971l-4.7737 3.5777c-0.48209 0.3613-0.30655 0.90362 0.396 1.2162l7.1211 3.1682c0.72391 0.32208 1.6979 0.28253 2.1815-0.088898" opacity=".997"/>
    <path d="m214.49 278.83l-6.3245-3.0157c-0.61418-0.29288-1.4971-0.25018-1.9848 0.095734l-5.0035 3.5492c-0.51485 0.3652-0.43802 0.91428 0.17776 1.231l6.3477 3.2653c0.65628 0.33762 1.6024 0.29434 2.1154-0.096985l4.9802-3.7988c0.48492-0.36987 0.34494-0.91834-0.30823-1.2298" opacity=".997"/>
    <path d="m195.2 272.37l6.5304 2.8878c0.46889 0.20737 0.51677 0.61377 0.10635 0.91153l-5.8251 4.2262c-0.42099 0.30545-1.1414 0.38037-1.6143 0.16766l-6.5853-2.962c-0.46698-0.21005-0.50003-0.62091-0.075104-0.92096l5.8799-4.152c0.41431-0.29254 1.1199-0.36298 1.583-0.15814" opacity=".997"/>
    <path d="m203.88 266.24l6.6304 2.8604c0.47876 0.20654 0.55858 0.59418 0.17802 0.86905l-5.3674 3.8771c-0.38547 0.27844-1.0806 0.33188-1.5576 0.11987l-6.6052-2.9354c-0.46574-0.20697-0.5311-0.59335-0.14748-0.86636l5.3423-3.8019c0.37882-0.26959 1.0594-0.32431 1.527-0.12262" opacity=".997"/>
    <path d="m222.51 272.96l-6.2936-2.8531c-0.61139-0.27716-1.4687-0.242-1.926 0.078064l-4.6175 3.2316c-0.46758 0.32724-0.36209 0.82608 0.24034 1.1193l6.204 3.0198c0.64081 0.31192 1.544 0.28665 2.0208-0.057617l4.7071-3.3984c0.46597-0.33646 0.31464-0.84512-0.33511-1.1397" opacity=".997"/>
    <path d="m231.83 281.09l4.8348-3.7371c0.47879-0.37012 0.28909-0.9079-0.42264-1.2058l-6.9998-2.9292c-0.6904-0.28891-1.63-0.23224-2.1093 0.12695l-4.8386 3.6265c-0.4899 0.36716-0.33041 0.90399 0.36026 1.2038l7.0038 3.0398c0.71228 0.30914 1.6821 0.25342 2.1717-0.125" opacity=".997"/>
    <path d="m238.56 278.64l5.1282-3.9881c0.50684-0.39414 1.3657-0.49167 1.9275-0.21918l5.6508 2.7412c0.57007 0.27655 0.62613 0.8226 0.12393 1.2248l-5.0819 4.0707c-0.51575 0.41315-1.3952 0.51682-1.97 0.2319l-5.697-2.8238c-0.56628-0.28067-0.60175-0.83289-0.08139-1.2376" opacity=".997"/>
    <path d="m229.79 267.5l-6.1464-2.7937c-0.62051-0.28201-1.4576-0.26297-1.877 0.043854l-4.2504 3.1091c-0.43195 0.31598-0.26764 0.79993 0.36856 1.084l6.3011 2.813c0.62585 0.27939 1.4649 0.2475 1.881-0.070404l4.0957-3.1284c0.40424-0.30878 0.23798-0.77991-0.37259-1.0574" opacity=".997"/>
    <path d="m213.34 259.37l7.2694 3.0927c0.30975 0.13178 0.33762 0.39917 0.061737 0.59992l-6.7165 4.8879c-0.2941 0.21402-0.78857 0.27585-1.1079 0.13818l-7.4928-3.2302c-0.31618-0.13629-0.32546-0.41379-0.021637-0.62176l6.94-4.7505c0.2851-0.19516 0.76099-0.24686 1.0678-0.11633" opacity=".997"/>
    <path d="m240.06 275l4.1947-3.2196c0.4183-0.32111 0.18778-0.82013-0.51715-1.1194l-7.0706-3.0014c-0.71124-0.30191-1.6256-0.28665-2.05 0.034637l-4.2551 3.2219c-0.42795 0.32404-0.19476 0.82812 0.52258 1.1298l7.131 2.9992c0.71094 0.29901 1.6227 0.27869 2.0446-0.045105" opacity=".997"/>
    <path d="m256.07 274.67l16.217-13.102c0.75772-0.61215 1.0819-1.2145 0.73038-1.3522l-7.016-2.7481c-0.33124-0.12976-1.1969 0.23651-1.9442 0.82269l-15.973 12.53c-0.80771 0.63358-1.2037 1.271-0.88443 1.4276l6.7716 3.3201c0.33981 0.1666 1.2774-0.23483 2.0985-0.89822" opacity=".997"/>
    <path d="m247.12 269.42l3.8061-2.9632c0.3775-0.29392 0.10803-0.76938-0.60059-1.0652l-6.894-2.8786c-0.67273-0.28088-1.5122-0.27994-1.8857 0.001343l-3.7641 2.835c-0.38049 0.28656-0.15146 0.75278 0.51697 1.046l6.852 3.0068c0.7045 0.30914 1.5844 0.3175 1.9693 0.017914" opacity=".997"/>
    <path d="m235.76 262.75l-6.1392-2.4334c-0.57507-0.22797-1.2974-0.21808-1.6265 0.020447l-3.3506 2.4282c-0.34204 0.24789-0.17123 0.65008 0.39008 0.90372l6.0025 2.7122c0.64398 0.29098 1.4566 0.30435 1.8132 0.027527l3.4871-2.7073c0.34201-0.26553 0.080994-0.6908-0.57654-0.95142" opacity=".997"/>
    <path d="m222.61 261.05l-7.4129-3.1639c-0.3233-0.138 0.03656-0.68216 0.80188-1.2171l16.019-11.196c0.65814-0.45999 1.4331-0.73254 1.7416-0.61351l7.0645 2.7259c0.31747 0.1225 0.058594 0.60336-0.58441 1.0808l-15.67 11.634c-0.7496 0.55652-1.6256 0.89255-1.9591 0.75021" opacity=".997"/>
    <path d="m262.06 255.65s-16.224-6.2971-16.224-6.2971c-1.1118-0.4315-2.5219-0.41531-3.1444 0.044617l-10.851 8.017c-0.65173 0.48157-0.78476 0.89554 0.47897 1.2473l6.1688 2.5211c0.99792 0.40784 0.99594 0.42896 1.8625-0.20252l1.1548-0.8416c0.25253-0.18399 1.0093-0.25534 1.8207 0.094238l8.3578 3.601c0.92172 0.25656 1.7224 0.33466 2.2427-0.074158l8.695-6.8316c0.5007-0.39343 0.2547-0.96118-0.56229-1.2783"/>
   </g>
  </g>
 </g>
 <g fill-rule="evenodd">
  <g fill="#fff">
   <path d="m261.63 362.66c3.6374 2.0498 3.156 3.514-0.96286 6.8815-4.1524 3.3951 1.2303-1.5129 2.3536-3.0747 1.1728-1.6306-4.9656-5.8214-1.3908-3.8068z"/>
   <path d="m295.65 338.21c3.6374 2.0498 4.3863 3.0747 0.26746 6.4423-4.1524 3.395 0.80237-1.4641 2.1396-3.1235 1.3007-1.614-5.9819-5.3333-2.4071-3.3188z"/>
   <path d="m279.39 350.65c3.6374 2.0499 4.6002 2.7819 0.48142 6.1494-4.1524 3.395 1.0164-1.8546 1.8187-2.8307 0.94397-1.1483-5.8749-5.3333-2.3001-3.3187z"/>
   <path d="m311.27 326.44c3.6374 2.0499 4.6002 2.782 0.48142 6.1495-4.1524 3.395 2.0326-1.3177 1.6582-3.1723-0.37283-1.8465-5.7145-4.9916-2.1396-2.9771z"/>
   <path d="m274.44 327.81c3.5748 2.0146 4.2258 2.7087-0.026764 5.9543-4.271 3.2596 1.7636-2.2797 2.1932-3.0259 0.41855-0.7272-5.7412-4.9429-2.1664-2.9283z"/>
   <path d="m250.18 321.61c4.3327 2.1963 4.9288 2.9198 0.48144 6.1495-4.4734 3.2486 1.8186-1.7082 1.8186-3.2211 0-1.5618-6.6104-5.1132-2.3001-2.9284z"/>
   <path d="m220.33 315.71c3.8514 1.8546 5.0281 2.9771 0.48138 6.1495-4.5392 3.1671 2.3001-1.7081 1.9257-3.1723-0.39816-1.5569-6.2211-4.8138-2.4071-2.9771z"/>
   <path d="m194.87 309.7c3.6374 1.9522 4.8142 3.1235 0.48142 6.1495-4.3516 3.0391 1.9792-1.3178 1.6047-3.27-0.37296-1.9445-5.7711-4.8573-2.0862-2.8795z"/>
   <path d="m203.48 326.59c3.6374 2.0498 4.8007 2.9449 0.48142 6.1495-4.3129 3.1998-7.0843 4.9052-1.2303 0.19519 5.884-4.7341-2.8259-8.3592 0.74887-6.3447z"/>
   <path d="m233.01 332.79c6.0445 2.9283 5.1351 2.5867-4.3863 9.517-9.4954 6.9114 4.416-4.2199 5.8305-5.6614 1.3641-1.3901-7.4471-6.7637-1.4442-3.8556z"/>
   <path d="m257.24 338.6c3.6374 2.0498 3.7978 4.49-6.4189 12.006-10.249 7.5399 9.4902-6.7068 6.9004-9.7611-2.5181-2.9696-4.0562-4.2596-0.48144-2.245z"/>
   <path d="m176.84 320.69c4.3863 2.3426 4.4933 3.3675 0 6.4422-4.4425 3.04 2.4071-1.9522 2.0326-3.4164-0.36261-1.4179-6.3792-5.3473-2.0326-3.0259z"/>
   <path d="m211.24 299.11c3.6374 2.0498 4.8142 3.0747 0.48142 6.1494-4.3851 3.1119 1.2838-2.0498 1.9792-2.8308 0.64444-0.72369-6.0354-5.3332-2.4606-3.3187z"/>
   <path d="m237.24 304.58c3.6374 2.0498 4.6002 2.7819 0.48148 6.1494-4.1524 3.3951 1.7117-1.2689 1.3372-3.2211-0.37299-1.9445-5.3935-4.9428-1.8187-2.9283z"/>
   <path d="m265.68 310.29c3.6374 2.0498 4.6002 2.7819 0.48142 6.1494-4.1524 3.3951 1.7117-1.2689 1.3373-3.2211-0.37302-1.9445-5.3935-4.9429-1.8187-2.9283z"/>
   <path d="m290.49 315.93c4.6964 2.1188 5.3567 2.7129 0.48138 6.1495-4.803 3.3856 2.2477-2.0366 2.0938-3.3592-0.14606-1.2542-7.3333-4.9369-2.5752-2.7902z"/>
   <path d="m226.97 288.57c3.6374 2.0499 4.7935 3.0089 0.48142 6.1495-4.2594 3.1021 1.7117-1.3666 1.6582-3.1236-0.053467-1.757-5.7144-5.0405-2.1396-3.0259z"/>
   <path d="m253.07 293.45c3.7444 1.8546 4.8142 2.8795 0.48144 6.1494-4.2617 3.2163 2.0326-1.1713 1.6582-3.1235-0.37299-1.9445-5.897-4.8869-2.1396-3.0259z"/>
   <path d="m281.23 299.29c3.6374 2.0498 4.6002 2.7819 0.48142 6.1494-4.1524 3.3951 1.7117-1.2689 1.3373-3.2211-0.37299-1.9446-5.3935-4.9429-1.8187-2.9284z"/>
   <path d="m307.42 303.8c5.0747 2.533 4.6002 2.7819 0.48144 6.1495-4.1524 3.395 2.1063-2.1758 1.9425-3.4282-0.14603-1.1162-7.4405-5.2252-2.4239-2.7212z"/>
   <path d="m398.08 259.62c7.6467 3.9134 6.8701 2.186-10.866 15.605-17.586 13.306 5.7756-6.4709 10.433-10.351 4.6199-3.8481-7.3297-9.2272 0.43234-5.2548z"/>
   <path d="m321.43 292.67c3.6373 2.0499 4.6002 2.7819 0.48142 6.1495-4.1524 3.395 1.7116-1.269 1.3372-3.2211-0.37299-1.9445-5.3935-4.9429-1.8187-2.9284z"/>
   <path d="m337.69 282.52c3.6374 2.0498 4.6002 2.7819 0.48148 6.1494-4.1524 3.395 1.7117-1.2689 1.3373-3.2212-0.37299-1.9445-5.3936-4.9428-1.8188-2.9283z"/>
   <path d="m352.67 271.59c3.6374 2.0499 4.6002 2.7819 0.48148 6.1495-4.1524 3.395 1.7117-1.269 1.3372-3.2212-0.37289-1.9445-5.3934-4.9429-1.8187-2.9283z"/>
   <path d="m366.79 260.66c3.6374 2.0498 4.6002 2.7819 0.48138 6.1495-4.1524 3.395 1.7117-1.269 1.3373-3.2212-0.37296-1.9445-5.3935-4.9428-1.8187-2.9283z"/>
   <path d="m293.83 288.18c3.6373 2.0498 4.6002 2.7819 0.48135 6.1495-4.1524 3.395 1.7117-1.2689 1.3373-3.2212-0.37299-1.9445-5.3935-4.9429-1.8187-2.9283z"/>
   <path d="m269.5 282.14c6.312 3.0259 5.2422 2.9771 0.48142 6.1494-4.6608 3.1058 0.72833-1.269 2.0182-2.9451 1.2418-1.6139-8.768-6.2095-2.4996-3.2044z"/>
   <path d="m244.3 277.64c4.7072 2.5379 5.3491 2.6843 0.48142 6.1495-4.8014 3.4181 2.1396-1.1713 1.7652-3.1235-0.37296-1.9445-6.8747-5.5212-2.2466-3.0259z"/>
   <path d="m259.38 266.9c3.6374 2.0498 4.6002 2.7819 0.48142 6.1495-4.1524 3.395 1.7117-1.269 1.3373-3.2212-0.37296-1.9445-5.3935-4.9428-1.8187-2.9283z"/>
   <path d="m276.6 256.85c3.6374 2.0498 4.6002 2.7819 0.48142 6.1494-4.1524 3.395 1.7117-1.269 1.3373-3.2211-0.37299-1.9445-5.3935-4.9429-1.8187-2.9283z"/>
   <path d="m285.27 271.29c3.6374 2.0498 4.6002 2.7819 0.48142 6.1495-4.1524 3.395 1.7117-1.2689 1.3372-3.2212-0.37296-1.9445-5.3935-4.9428-1.8187-2.9283z"/>
   <path d="m301.96 260.07c3.6374 2.0498 4.6003 2.7819 0.48151 6.1495-4.1524 3.395 1.7116-1.269 1.3372-3.2212-0.37296-1.9445-5.3935-4.9429-1.8188-2.9283z"/>
   <path d="m312.23 277.74c3.6373 2.0498 4.6002 2.7819 0.48142 6.1494-4.1524 3.395 1.7117-1.2689 1.3372-3.2211-0.37296-1.9445-5.3935-4.9429-1.8187-2.9283z"/>
   <path d="m326.14 267.88c3.6374 2.0499 4.6002 2.782 0.48148 6.1495-4.1524 3.395 1.7117-1.2689 1.3372-3.2212-0.37292-1.9445-5.3935-4.9429-1.8187-2.9283z"/>
   <path d="m317.58 249.72c3.6374 2.0499 4.6002 2.7819 0.48142 6.1495-4.1524 3.395 1.7118-1.2689 1.3373-3.2211-0.37302-1.9445-5.3935-4.9429-1.8187-2.9284z"/>
   <path d="m340.57 257.93c3.9839 1.8214 4.7515 2.7819 0.63269 6.1495-4.1524 3.395 2.1656-2.3043 2.0181-3.3592-0.14664-1.0485-6.7552-4.6668-2.6508-2.7902z"/>
   <path d="m291.8 246.31c3.6374 2.0498 4.6002 2.7819 0.48142 6.1495-4.1524 3.395 1.7117-1.269 1.3373-3.2212-0.37299-1.9445-5.3935-4.9428-1.8187-2.9283z"/>
   <path d="m306.94 235.71c4.0156 1.7738 5.0541 2.989 0.48144 6.1495-4.5618 3.153 2.3926-2.5113 2.245-3.4972-0.16779-1.1216-6.7129-4.4131-2.7265-2.6523z"/>
   <path d="m346.65 230.29c3.94 1.9118 5.4323 2.4368 0.48142 6.1495-4.914 3.685 2.3926-1.407 2.0181-3.3592-0.37296-1.9445-6.4086-4.687-2.4995-2.7903z"/>
   <path d="m331.7 239.99c3.8644 1.8082 4.9028 3.058 0.48142 6.1495-4.416 3.0877 2.3169-2.0972 2.0938-3.3592-0.24896-1.4081-6.4242-4.5914-2.5752-2.7903z"/>
   <path d="m409.8 229.29c3.8265 1.8427 4.4611 3.0662 0.48138 6.1495-4.0017 3.1003 1.409-1.7253 1.9802-2.738 0.55634-0.98608-6.2587-5.24-2.4616-3.4114z"/>
   <path d="m323.01 225.58c3.7887 1.7047 4.8272 2.6439 0.48142 5.7353-4.3827 3.1178 2.3926-2.0972 2.0938-3.1521-0.29465-1.0402-6.3032-4.2606-2.5752-2.5832z"/>
   <path d="m339.71 215.33c5.6457 2.7981 3.7681 2.3678-0.50204 5.5283-4.2246 3.1269 2.614-2.2466 2.2451-3.3592-0.36899-1.1126-7.3888-4.9672-1.743-2.1691z"/>
   <path d="m361.12 220.82c4.1291 1.9808 5.0163 2.9889 0.48142 6.1494-4.5294 3.1567 2.2034-2.2007 2.0559-3.2211-0.15308-1.0593-6.6368-4.8949-2.5373-2.9283z"/>
   <path d="m384.23 227.08c3.6374 2.0498 4.6002 2.7819 0.48142 6.1495-4.1524 3.395 1.7118-1.2689 1.3373-3.2211-0.37296-1.9445-5.3935-4.9429-1.8187-2.9283z"/>
   <path d="m369.79 236.84c3.6374 2.0498 4.6002 2.7819 0.48148 6.1494-4.1524 3.3951 1.7117-1.2689 1.3372-3.2211-0.37289-1.9445-5.3935-4.9429-1.8187-2.9283z"/>
   <path d="m355.62 246.97c4.6208 2.1879 4.8272 2.8509 0.48142 6.1495-4.339 3.2934 2.1656-2.2353 2.0181-3.4973-0.1579-1.351-6.9691-4.7711-2.4995-2.6522z"/>
   <path d="m380.27 249.72c3.6374 2.0499 4.6002 2.7819 0.48144 6.1495-4.1525 3.395 1.7117-1.2689 1.3372-3.2211-0.37292-1.9445-5.3935-4.9429-1.8187-2.9284z"/>
   <path d="m395.4 239.93c4.2048 1.8428 4.865 2.6784 0.51929 5.9424-4.3197 3.2444 2.3952-2.1398 2.245-3.3592-0.146-1.1852-6.8774-4.3858-2.7643-2.5832z"/>
   <path d="m414.1 247.77c4.4932 2.1962 4.9746 2.7575 0.48142 6.1495-4.467 3.3722 0.33972-0.87186 1.685-2.4403 1.312-1.5296-6.6266-5.8893-2.1664-3.7092z"/>
   <path d="m428.87 237.3c4.2047 1.7392 4.9028 2.7129 0.48142 6.1495-4.3843 3.4078-0.026703-0.73889 1.7533-2.6345 1.7423-1.8554-6.394-5.2354-2.2347-3.515z"/>
   <path d="m443.25 226.7c4.1291 1.9808 4.6002 2.7819 0.48138 6.1495-4.1524 3.395 0.12573-1.0331 1.186-2.8415 1.14-1.9445-5.7513-5.2671-1.6674-3.3079z"/>
   <path d="m424.43 218.15c3.9316 1.757 4.7875 2.8795 0.48151 6.1495-4.3035 3.268 2.0067-2.1776 1.8989-3.4164-0.10547-1.2124-6.3118-4.4901-2.3804-2.7331z"/>
   <path d="m398.31 216.87c4.7722 2.4639 4.8272 3.058 0.48144 6.1495-4.3827 3.1177-1.7226 0.2085 1.2616-1.9098 3.0312-2.1516-6.336-6.6112-1.7431-4.2397z"/>
   <path d="m374.39 211.85c3.6374 2.0498 4.6002 2.7819 0.48144 6.1495-4.1524 3.395 1.7117-1.269 1.3372-3.2212-0.37292-1.9445-5.3935-4.9429-1.8187-2.9284z"/>
   <path d="m354.2 205.59c5.4168 2.2312 5.3567 2.3678 0.33008 5.5973-5.0625 3.2526 2.5331-1.7209 2.0938-3.1521-0.44858-1.4614-7.7779-4.6506-2.4238-2.4452z"/>
   <path d="m370.43 194.57c3.6374 2.0498 4.6002 2.7819 0.48142 6.1495-4.1524 3.395 1.7117-1.269 1.3373-3.2212-0.37299-1.9445-5.3935-4.9429-1.8187-2.9284z"/>
   <path d="m387.44 203.16c3.6374 2.0498 4.6002 2.7819 0.48144 6.1495-4.1524 3.395 1.7117-1.269 1.3372-3.2212-0.37302-1.9445-5.3935-4.9428-1.8187-2.9283z"/>
   <path d="m410.82 208.16c4.5451 1.9118 5.2054 2.7819 0.48144 6.1495-4.6307 3.301-0.40649 0.11153 1.7911-2.669 2.0244-2.5613-6.6934-5.34-2.2726-3.4805z"/>
   <path d="m397.28 195.65c3.6374 2.0498 4.6002 2.7819 0.48144 6.1495-4.1524 3.395 1.7117-1.269 1.3373-3.2212-0.37299-1.9445-5.3935-4.9429-1.8187-2.9283z"/>
   <path d="m422.85 200.04c3.6374 2.0498 4.6002 2.7819 0.48142 6.1495-4.1524 3.395 1.7117-1.2689 1.3372-3.2212-0.37292-1.9445-5.3935-4.9429-1.8187-2.9283z"/>
   <path d="m460.51 191.74c5.1352 1.757 5.3487 2.0057-5.5096 10.005-10.806 7.9607 2.6705-2.635 6.312-5.759 3.67-3.1485-5.9201-5.9971-0.8024-4.2461z"/>
   <path d="m442 185.2c3.6374 2.0498 4.6002 2.7819 0.48144 6.1495-4.1524 3.395 1.7116-1.2689 1.3373-3.2211-0.37299-1.9445-5.3935-4.9429-1.8187-2.9284z"/>
   <path d="m404.27 171.98c6.512 2.3949 6.2644 2.1607-3.9819 9.3244-10.235 7.1562 4.5106-3.8918 6.6326-5.7749 2.1244-1.8853-9.2165-5.9642-2.6508-3.5495z"/>
  </g>
  <path d="m347.32-86.741l-344.64 103.27 12.356 75.795c113.89-53.446 241.63-19.129 330.79-54.076l1.4977-124.99z" fill="url(#i)"/>
  <path d="m-19.465-4.4746c7.0006-2.3518 9.2157-1.4748 11.827 1.3544l50.439 307.15-14.137-6.4768-48.13-302.03z" fill="#1a1a1a" stroke="#333" stroke-linecap="round" stroke-linejoin="round" stroke-width=".818"/>
  <path d="m89.226 275.88l231.08-129.24c2.9145 1.6321 5.464 3.4641 5.5631 6.6375l-230.23 129.43c-0.40698-3.0022-2.5886-5.2622-6.4189-6.8328z" fill="#808080"/>
  <g fill="#fff">
   <path d="m208.51 246.73l106.97-64.328 0.9078 1.3804-105.15 65.156-2.7233-2.2087z" filter="url(#a)" opacity=".67"/>
   <path d="m119.7 298.64l26.628-15.737 0.9078 1.3805-24.812 16.565-2.7233-2.2086z" filter="url(#a)" opacity=".67"/>
   <path d="m119.7 298.64l26.628-15.737 0.9078 1.3805-24.812 16.565-2.7233-2.2086z" filter="url(#a)" opacity=".67"/>
   <path d="m208.51 246.73l106.97-64.328 0.9078 1.3804-105.15 65.156-2.7233-2.2087z" filter="url(#a)" opacity=".67"/>
  </g>
  <path d="m108.02 297.3c4.2463-3.5903 15.19 3.1363 14.118 7.6144l-14.118-7.6144z" fill="#666" opacity=".997" stroke="#000" stroke-linecap="round" stroke-linejoin="round" stroke-width=".205"/>
 </g>
 <path d="m442.75 258.85c-3.1854 0.14328-6.0568 0.92346-7.9167 2.3426l-64.885 49.537c-4.4107 3.3657-2.8576 8.3723 3.5839 11.225 0 0 8.4172 3.6767 16.689 7.272 56.88-9.3643 18.939-63.001 69.057-66.082-2.2294-0.90683-6.7934-2.7331-6.7934-2.7331-3.0422-1.1962-6.55-1.705-9.7354-1.5617z" fill="url(#h)" stroke-linecap="round" stroke-linejoin="round" stroke-width=".953"/>
</svg>
